<svg id="One_line_cmyk_positive" data-name="One line cmyk positive" xmlns="http://www.w3.org/2000/svg" width="253" height="88" viewBox="0 0 253 88"><defs><style>.cls-1{fill:#0051a5;}.cls-2{fill:#fedf01;}.cls-3{fill:#fff;}</style></defs><title>rbc-wm-logo-en</title><path class="cls-1" d="M66.94,77.22c0,2.91-1.19,4.6-3.52,5.49A85.45,85.45,0,0,1,33.47,88,85.49,85.49,0,0,1,3.52,82.71C1.19,81.82,0,80.13,0,77.22V0H66.94Z"/><path class="cls-2" d="M18,47.06C8.69,41.27,5.62,38.71,5.36,34.92a9.22,9.22,0,0,1,.46-3L5,31.34A7.57,7.57,0,0,0,3.8,35.26a9.25,9.25,0,0,0,1.56,5.18c1.31,2,2.68,3.26,6.05,5.79A23,23,0,0,1,19,55.48h.51V51.7c4.92,2.79,9.25,5.41,11.38,10.1h.52C30.53,56.94,27.78,53.19,18,47.06Z"/><path class="cls-2" d="M60.65,61.81H60c0-3.46-3.17-4.4-6.49-4.4H43.15A17.52,17.52,0,0,1,43.38,63h-.52c-1-7.77-5.35-11.62-11.49-15.74v3.54h-.52c-1.63-3.65-5.22-7.08-8.61-9.51h0l-2.77-2v3.81H19c-1.44-3.78-4.06-6.6-7.78-10-4-3.62-5.65-5.79-6.59-8.28a11.76,11.76,0,0,1-.76-4.39c0-3,1.47-5.64,3.33-6.65v1.44a7.37,7.37,0,0,0-1.41,4.36,9.76,9.76,0,0,0,1.08,4.45C9.09,28.4,16.72,33.7,21.57,37,36.65,47.06,39.66,48.82,42.16,54.19A13.08,13.08,0,0,1,43,56.52l11.54-1.77c.27,0,.86-.12,1.16-.13A11.46,11.46,0,0,0,59,51.29l-5.78-.45a17.93,17.93,0,0,1-.86,1.67H51.9c.16-.59.3-1.17.41-1.74l-1.47-.11v-.31l1.6-.2a28.9,28.9,0,0,0,.48-4.62l-7.28-.42c0,.75,0,1.45,0,2.1h-.47c-.15-.72-.27-1.44-.37-2.15L43.19,45v-.48l1.51-.09a32.94,32.94,0,0,1-.14-5.26l-4.26-.2a9.67,9.67,0,0,1,.56,1.17,14,14,0,0,1,.39,7h-.51a15.61,15.61,0,0,0-1.13-4.76c-1.17-2.78-3.82-5.23-8.24-8.08v3.55h-.52c-1.47-4.66-5.14-7.25-10.59-10-4.49-2.31-5.89-5.09-5.64-9.39l1.52.9a6.69,6.69,0,0,0,6.72,6.32A27.76,27.76,0,0,0,28.28,25c2.49-.5,4.79-.93,6.72-.25V22.32H33.49a5.16,5.16,0,0,1-3.25,1c-1.78,0-5.13-1-5.13-4.74,0-3.26,2.75-3.78,5-3.78,1.2,0,3.2,0,3.87-.08a1.68,1.68,0,0,0,1.12-.35,1.38,1.38,0,0,0,.4-.84,9,9,0,0,0,.07-1.52V9.67H25.16v4.12L21.23,12.3v-1h1.88V9.67h-7V6.25H13.7a2.8,2.8,0,0,0-2.85,2.64c-.1,1.66.65,3.06,2.36,3.06h.31v2h-.31A5.15,5.15,0,0,1,7.94,8.7a5.66,5.66,0,0,1,5.87-5.5h5.08V6.62H38.62v5.06c0,.85,0,2-.13,2.72a3.14,3.14,0,0,1-1.24,2.23,4.92,4.92,0,0,1-3,.65c-.48,0-1.88,0-3.56-.13-2.25-.14-2.88.73-3,1.53a2.78,2.78,0,0,0,0,.5A4.57,4.57,0,0,1,32,18.32c3,.94,3.83,1,5.38-.2l.15.35a3.65,3.65,0,0,1-.9,1H38v7.79l4.48-2.68H55.08l6.19,3.23a2,2,0,0,1,1.19,1.62,2.93,2.93,0,0,1-.35,1.85c-.18.3-1.63,2.67-2.39,3.93a13.5,13.5,0,0,1-1.55,19.75,6.9,6.9,0,0,1,3.7,2.74Zm-28-42c-1.77-.39-2.75-.17-3.76.8a3.52,3.52,0,0,0,1.8.32A2.71,2.71,0,0,0,32.63,19.85Zm-1,11.23,5-3a7.34,7.34,0,0,0-3.33-.81,42.91,42.91,0,0,0-6,1C27.87,28.69,30.09,30.11,31.61,31.08Zm22.2.31.69-1L53.43,29l.18-.31,3,1.62-.65,2a13.11,13.11,0,0,1,1.52.92L59.42,30l-5-2.62H43.3l-9,5.42a23.41,23.41,0,0,1,4.35,3.72A13.53,13.53,0,0,1,49.5,30.79,13.73,13.73,0,0,1,53.81,31.39ZM52.91,44a27.21,27.21,0,0,0-.54-4.48l-5.88-.26a36.42,36.42,0,0,0-.8,5.12Zm2-4.36A21.2,21.2,0,0,1,55,43.86l5.83-.31a11.43,11.43,0,0,0-1.09-3.72Zm-3-1.91a20.51,20.51,0,0,0-1.72-4.25c-.24,0-.49,0-.73,0a12.07,12.07,0,0,0-1.22.09A36.43,36.43,0,0,0,46.79,38Zm1.62-3.53a26.1,26.1,0,0,1,1,3.39l3.56-.2A11.54,11.54,0,0,0,53.54,34.17Zm6.55,15A9.82,9.82,0,0,0,60.85,46l-6.06-.35A20.67,20.67,0,0,1,53.59,50ZM45.16,34.41a10.9,10.9,0,0,0-4.68,3.91l4.15-.22A26.94,26.94,0,0,1,45.16,34.41Z"/><path class="cls-3" d="M37.47,70.75a3.73,3.73,0,0,0,3.3-3.57c0-1.79-.76-3.76-6-3.76H25.85v.14a2.71,2.71,0,0,1,1,.58,3.66,3.66,0,0,1,.83,2.64V80.09H35c4,0,7-1.54,7-5.08C42,72.13,39.77,70.9,37.47,70.75ZM33.68,65c1.88,0,3.16.41,3.16,2.42s-1.71,2.74-3.67,2.74H31.49V65Zm.19,13.51H31.49V71.71h2.27c3.11,0,4.31.93,4.31,3.27C38.07,77.5,36.51,78.52,33.87,78.52Z"/><path class="cls-3" d="M19.28,80.09h4.81L18,72.25c2.46-.66,4.3-2,4.3-4.44,0-2.87-1.71-4.39-6.21-4.39H6.77v.14a3.08,3.08,0,0,1,1,.59,3.94,3.94,0,0,1,.85,2.94v13h3.85V72.7h1.4ZM12.44,65H15c2.16,0,3.29.63,3.29,2.93,0,2-1.47,3.26-3.84,3.26h-2Z"/><path class="cls-3" d="M57.58,65.7a3.13,3.13,0,0,1,1.35,1.36c0,.06.16,0,.16,0l.84-2.85s-1.5-1.09-5.09-1.09c-5.42,0-9.48,2.74-9.48,8.71,0,6.73,4.84,8.48,9.1,8.48,4,0,5.52-1.26,5.52-1.26v-2a6.64,6.64,0,0,1-4.4,1.31c-2.48,0-6.12-1.13-6.2-6.67-.07-5.1,2.15-6.77,5.14-6.77A5.77,5.77,0,0,1,57.58,65.7Z"/><path class="cls-1" d="M115.7,23.36h-2.92l-2.55-9.95a9.12,9.12,0,0,1-.21-1,6.82,6.82,0,0,1-.2,1l-2.54,10h-3L99.11,6.69h3.46l3.7,12.07a9.12,9.12,0,0,1,.21,1c0-.22.13-.7.2-1l2.51-12.09h2.4l3.29,12.09c.07.32.17.8.19,1a9.34,9.34,0,0,1,.27-1l1.21-4.62A38.54,38.54,0,0,0,118,6.69h3.15Z"/><path class="cls-1" d="M128.36,23.82a6.35,6.35,0,0,1-6.42-6.28c0-.12,0-.25,0-.38A6.38,6.38,0,0,1,128,10.49h.31a5.3,5.3,0,0,1,5.63,4.92,5,5,0,0,1,0,.55c0,.24,0,.8-.07,1.24l-8.71.17c.24,2.66,1.77,4.52,3.8,4.52a7.37,7.37,0,0,0,3.77-1.28l.87,1.5A8.66,8.66,0,0,1,128.36,23.82Zm2.25-8.42c0-2-1-3.1-2.25-3.1-1.48,0-2.76,1.26-3,3.34Z"/><path class="cls-1" d="M148.17,23.36h-.7a2.46,2.46,0,0,0-1.24-.37,3.65,3.65,0,0,0-1.16.32,7.05,7.05,0,0,1-2.49.51,5.73,5.73,0,0,1-5.15-2.91,7.68,7.68,0,0,1-.83-3.67,6.7,6.7,0,0,1,2.59-5.59A6.4,6.4,0,0,1,143,10.44a9.59,9.59,0,0,1,3,.55l2.13-.48V23.36Zm-5-11c-1.72,0-3.34,1.5-3.34,4.74a5.22,5.22,0,0,0,1.4,4.14,2.46,2.46,0,0,0,1.72.7,3.54,3.54,0,0,0,2.15-.8V12.9A3.76,3.76,0,0,0,143.14,12.35Z"/><path class="cls-1" d="M155.21,23.36h-3.07V4.53h3.07Z"/><path class="cls-1" d="M166.43,22.22a8.76,8.76,0,0,1-4.4,1.45,2.68,2.68,0,0,1-2.1-.85,3.67,3.67,0,0,1-.7-2.46V7.17l3-.75V10.8h3.44v1.86h-3.44v7.48c0,.94.49,1.26,1.12,1.26a7.54,7.54,0,0,0,2.46-.7Z"/><path class="cls-1" d="M177.1,23.36v-7a5.46,5.46,0,0,0-.5-2.73,2.28,2.28,0,0,0-2.06-1,4.71,4.71,0,0,0-2.32.65V23.36h-3.08V4.53h3.08V11a7.09,7.09,0,0,1,2.8-.58,5.06,5.06,0,0,1,4.33,2.25,6.71,6.71,0,0,1,.83,3.56v7.14Z"/><path class="cls-1" d="M119.72,51.72H116.5L115,37.79l-3.73,13.93h-2.66l-3.7-13.93-1.55,13.93h-3.22l1.82-13.33a3.46,3.46,0,0,0-.44-2.51,1.54,1.54,0,0,0-1.09-.61v-.22h6l3.32,12.27a5.42,5.42,0,0,1,.21,1,6.17,6.17,0,0,1,.2-.95l3.31-12.29h4.24Z"/><path class="cls-1" d="M133.92,51.72h-.7a2.55,2.55,0,0,0-1.24-.36,3.4,3.4,0,0,0-1.16.32,6.83,6.83,0,0,1-2.49.5,5.7,5.7,0,0,1-5.15-2.9,7.82,7.82,0,0,1-.83-3.68A6.73,6.73,0,0,1,124.94,40a6.54,6.54,0,0,1,3.85-1.21,9.89,9.89,0,0,1,3,.56l2.13-.48V51.72Zm-5-11c-1.72,0-3.34,1.5-3.34,4.74A5.22,5.22,0,0,0,127,49.6a2.51,2.51,0,0,0,1.72.7,3.64,3.64,0,0,0,2.15-.8V41.27A3.66,3.66,0,0,0,128.89,40.72Z"/><path class="cls-1" d="M145.51,51.72v-7A5.3,5.3,0,0,0,145,42a2.28,2.28,0,0,0-2.08-1,5.25,5.25,0,0,0-2.2.58V51.72h-3.08V39.17h.71a2.84,2.84,0,0,0,1.21.36,4,4,0,0,0,1.28-.24,7,7,0,0,1,2.59-.51A5,5,0,0,1,147.76,41a6.31,6.31,0,0,1,.82,3.51v7.25Z"/><path class="cls-1" d="M163.1,51.72h-.7a2.59,2.59,0,0,0-1.24-.36,3.4,3.4,0,0,0-1.16.32,6.87,6.87,0,0,1-2.49.5,5.71,5.71,0,0,1-5.16-2.9,7.81,7.81,0,0,1-.82-3.68A6.7,6.7,0,0,1,154.12,40,6.54,6.54,0,0,1,158,38.8a10,10,0,0,1,3,.56l2.13-.48V51.72Zm-5-11c-1.71,0-3.33,1.5-3.33,4.74a5.22,5.22,0,0,0,1.4,4.14,2.49,2.49,0,0,0,1.72.7,3.67,3.67,0,0,0,2.15-.8V41.27A3.67,3.67,0,0,0,158.06,40.72Z"/><path class="cls-1" d="M176.26,40.84a4.32,4.32,0,0,1,1,2.9A5.05,5.05,0,0,1,172,48.61h-.2a7.71,7.71,0,0,1-1.79-.24c-.46.39-.7.73-.7,1s.19.51.55.61a15.33,15.33,0,0,0,2.79.26c3,.12,6,.8,6,4a4,4,0,0,1-1.42,3A7.5,7.5,0,0,1,172.12,59c-4.43,0-6.29-1.53-6.29-3.46a3.28,3.28,0,0,1,2.42-2.71h.8a4.24,4.24,0,0,0-.75,2.2c0,1.33,1.21,2.2,3.6,2.2,1.79,0,3.83-.77,3.83-2.37s-2-1.69-3.83-1.84a11.12,11.12,0,0,1-3.48-.56,2.28,2.28,0,0,1-1.72-2.13,3.57,3.57,0,0,1,1.77-2.78,4.7,4.7,0,0,1-2-3.84,5.06,5.06,0,0,1,5.21-4.9h.19a5.29,5.29,0,0,1,2.59.58,8.61,8.61,0,0,0,3.39-1.6l1.06,2.11A9.66,9.66,0,0,1,176.26,40.84Zm-4.41-.25c-1.5,0-2.34,1.34-2.34,3.13s.84,3.12,2.34,3.12,2.38-1.33,2.38-3.12-.88-3.13-2.38-3.13Z"/><path class="cls-1" d="M186.81,52.18a6.34,6.34,0,0,1-6.42-6.27v-.38a6.39,6.39,0,0,1,6.06-6.67h.31a5.28,5.28,0,0,1,5.63,4.91,5.23,5.23,0,0,1,0,.56c0,.24,0,.8-.07,1.23l-8.71.17c.24,2.67,1.77,4.53,3.8,4.53A7.37,7.37,0,0,0,191.18,49l.88,1.5A8.7,8.7,0,0,1,186.81,52.18Zm2.25-8.42c0-2-1-3.09-2.25-3.09-1.48,0-2.76,1.26-3,3.34Z"/><path class="cls-1" d="M209.92,51.72V44.39a5.52,5.52,0,0,0-.38-2.3A2.25,2.25,0,0,0,207.65,41a3.81,3.81,0,0,0-2.06.68,9.21,9.21,0,0,1,.2,2.4v7.66h-3v-8.2A3.67,3.67,0,0,0,202.5,42a1.83,1.83,0,0,0-1.74-1,4.16,4.16,0,0,0-2.16.7V51.72h-3.07V39.17h.39a3,3,0,0,0,1.33.36c1,0,2-.73,3.84-.73a4.64,4.64,0,0,1,3.32,1.14,6.92,6.92,0,0,1,3.8-1.14,4.58,4.58,0,0,1,4.06,2.13,7.17,7.17,0,0,1,.73,3.46v7.33Z"/><path class="cls-1" d="M222.43,52.18A6.35,6.35,0,0,1,216,45.91c0-.13,0-.25,0-.38a6.37,6.37,0,0,1,6.06-6.67h.3A5.3,5.3,0,0,1,228,44.32c0,.24,0,.8-.07,1.23l-8.71.17c.24,2.67,1.76,4.53,3.8,4.53A7.4,7.4,0,0,0,226.81,49l.87,1.5A8.7,8.7,0,0,1,222.43,52.18Zm2.25-8.42c0-2-1-3.09-2.25-3.09-1.47,0-2.76,1.26-3,3.34Z"/><path class="cls-1" d="M239,51.72v-7a5.3,5.3,0,0,0-.51-2.71,2.28,2.28,0,0,0-2.08-1,5.25,5.25,0,0,0-2.2.58V51.72h-3.07V39.17h.7a2.84,2.84,0,0,0,1.21.36,4,4,0,0,0,1.28-.24,7,7,0,0,1,2.59-.51A5,5,0,0,1,241.27,41a6.31,6.31,0,0,1,.82,3.51v7.25Z"/><path class="cls-1" d="M252.92,50.59A8.76,8.76,0,0,1,248.51,52a2.68,2.68,0,0,1-2.1-.85,3.69,3.69,0,0,1-.7-2.47V35.54l3-.75v4.38h3.43V41h-3.43v7.48c0,.94.48,1.25,1.11,1.25a7.14,7.14,0,0,0,2.47-.7Z"/></svg>